<svg width="10" height="10" viewBox="0 0 10 10" fill="none" xmlns="http://www.w3.org/2000/svg">
<path d="M8.75 10C8.94891 10 9.13968 9.92098 9.28033 9.78033C9.42098 9.63968 9.5 9.44891 9.5 9.25V7.5C9.5 7.30109 9.42098 7.11032 9.28033 6.96967C9.13968 6.82902 8.94891 6.75 8.75 6.75C8.165 6.75 7.59 6.66 7.04 6.475C6.9085 6.43349 6.76815 6.42879 6.63417 6.46141C6.5002 6.49402 6.37771 6.5627 6.28 6.66L5.56 7.38C4.31612 6.70121 3.29379 5.67888 2.615 4.435L3.33 3.72C3.535 3.525 3.61 3.235 3.52 2.955C3.34 2.41 3.25 1.835 3.25 1.25C3.25 1.05109 3.17098 0.860322 3.03033 0.71967C2.88968 0.579018 2.69891 0.5 2.5 0.5H0.75C0.551088 0.5 0.360322 0.579018 0.21967 0.71967C0.0790177 0.860322 0 1.05109 0 1.25C0 6.075 3.925 10 8.75 10ZM0.75 1H2.5C2.5663 1 2.62989 1.02634 2.67678 1.07322C2.72366 1.12011 2.75 1.1837 2.75 1.25C2.75 1.89 2.85 2.515 3.045 3.11C3.07 3.18 3.065 3.28 2.985 3.36L2 4.34C2.825 5.955 4.035 7.165 5.655 8L6.63 7.015C6.7 6.945 6.795 6.925 6.885 6.95C7.485 7.15 8.11 7.25 8.75 7.25C8.8163 7.25 8.87989 7.27634 8.92678 7.32322C8.97366 7.37011 9 7.4337 9 7.5V9.25C9 9.3163 8.97366 9.37989 8.92678 9.42678C8.87989 9.47366 8.8163 9.5 8.75 9.5C4.2 9.5 0.5 5.8 0.5 1.25C0.5 1.1837 0.526339 1.12011 0.573223 1.07322C0.620107 1.02634 0.683696 1 0.75 1Z" fill="white"/>
</svg>
