<svg width="13" height="8" viewBox="0 0 13 8" fill="none" xmlns="http://www.w3.org/2000/svg">
<path d="M9.19158 6.48917C9.32942 6.60827 9.49177 6.70001 9.66878 6.7588C9.84579 6.8176 10.0338 6.84223 10.2213 6.8312C10.5185 6.83827 10.8099 6.75394 11.0506 6.59122C11.2467 6.4725 11.3951 6.29618 11.4726 6.09106H12.8728C12.7232 6.6758 12.3591 7.19337 11.8436 7.55415C11.3483 7.8604 10.7633 8.01574 10.1693 7.99874C9.7453 8.00444 9.32446 7.93003 8.93213 7.77998C8.57716 7.64155 8.25871 7.43279 7.99883 7.16817C7.74083 6.8903 7.54225 6.56892 7.41383 6.2214C7.26984 5.83273 7.19963 5.42361 7.20637 5.01243C7.20366 4.60826 7.27624 4.20662 7.42087 3.82569C7.61571 3.28991 7.98718 2.82531 8.48217 2.49829C8.97716 2.17127 9.57033 1.99858 10.1769 2.00491C10.6247 1.99691 11.0675 2.09476 11.4639 2.28934C11.8219 2.47223 12.1307 2.72888 12.3674 3.03958C12.6092 3.36542 12.7825 3.73109 12.8782 4.1172C12.9833 4.53198 13.0206 4.95888 12.9892 5.38427H8.81892C8.78479 5.78339 8.91858 6.17947 9.19158 6.48917ZM3.76298 0.000736719C4.11415 -0.00551791 4.46483 0.0280725 4.80731 0.100769C5.09582 0.15952 5.36971 0.268904 5.6144 0.423093C5.84082 0.576172 6.01957 0.782299 6.13332 1.02025C6.26386 1.31277 6.3267 1.62802 6.31803 1.94479C6.33334 2.29301 6.23799 2.63768 6.04394 2.93551C5.84089 3.21716 5.55945 3.44194 5.22982 3.58572C5.67658 3.69851 6.06577 3.95584 6.32778 4.31171C6.57911 4.6891 6.70532 5.12762 6.6907 5.5717C6.69917 5.92571 6.6208 6.27685 6.46157 6.59829C6.3144 6.87896 6.09862 7.12348 5.83161 7.31216C5.55721 7.49921 5.24816 7.63742 4.91998 7.71986C4.58009 7.8086 4.22859 7.85264 3.87564 7.85071H0V0.000736719H3.76298ZM3.63568 6.51796C3.80324 6.51998 3.96863 6.50331 4.13185 6.46795C4.28037 6.43725 4.42121 6.38032 4.54677 6.30022C4.67027 6.22039 4.7694 6.11278 4.83602 5.98749C4.91294 5.82734 4.94869 5.65254 4.93948 5.47773C4.95624 5.31814 4.93361 5.15708 4.87334 5.0069C4.81306 4.85672 4.71673 4.7214 4.59173 4.6113C4.3265 4.42945 4.00174 4.33926 3.67306 4.35616H1.75555V6.51796H3.63568ZM11.0213 3.50337C10.9047 3.39451 10.7643 3.31027 10.6098 3.25632C10.4552 3.20237 10.29 3.17998 10.1254 3.19064C9.90685 3.18283 9.68983 3.22791 9.49546 3.32149C9.34169 3.40073 9.20591 3.50712 9.09571 3.63472C8.99822 3.75454 8.92548 3.89022 8.88121 4.03485C8.84112 4.1561 8.81639 4.27971 8.807 4.40568H11.3902C11.3675 4.07744 11.2394 3.76318 11.0224 3.50387L11.0213 3.50337ZM3.53927 3.17599C3.81536 3.18668 4.08715 3.10954 4.31006 2.95723C4.52619 2.77788 4.63885 2.51265 4.6134 2.24337C4.62076 2.08826 4.58768 1.93379 4.51698 1.79323C4.4569 1.6815 4.36388 1.58808 4.24885 1.52395C4.13217 1.45338 4.00101 1.40624 3.86373 1.38552C3.71476 1.35849 3.56317 1.34613 3.41143 1.34864H1.75555V3.18306H3.53927V3.17599ZM11.7109 0.525146H8.47387V1.2966H11.7109V0.525146Z" fill="white"/>
</svg>
