<svg width="13" height="11" viewBox="0 0 13 11" fill="none" xmlns="http://www.w3.org/2000/svg">
<path d="M1.26967 10.4583C0.943361 10.4583 0.671125 10.3493 0.452958 10.1311C0.234792 9.91292 0.125472 9.64045 0.125 9.31367V1.68634C0.125 1.36003 0.234319 1.0878 0.452958 0.86963C0.671597 0.651463 0.943597 0.542144 1.26896 0.541672H11.731C12.0569 0.541672 12.3289 0.650991 12.547 0.86963C12.7652 1.08827 12.8745 1.36051 12.875 1.68634V9.31438C12.875 9.64021 12.7657 9.91245 12.547 10.1311C12.3284 10.3497 12.0564 10.4588 11.731 10.4583H1.26967ZM6.5 5.58217L0.833333 1.87688V9.31438C0.833333 9.44141 0.87418 9.54577 0.955875 9.62746C1.03757 9.70916 1.14217 9.75 1.26967 9.75H11.731C11.8581 9.75 11.9624 9.70916 12.0441 9.62746C12.1258 9.54577 12.1667 9.44117 12.1667 9.31367V1.87617L6.5 5.58217ZM6.5 4.79167L11.9485 1.25001H1.0515L6.5 4.79167ZM0.833333 1.87688V1.25001V9.31438C0.833333 9.44141 0.87418 9.54577 0.955875 9.62746C1.03757 9.70916 1.14217 9.75 1.26967 9.75H0.833333V1.87688Z" fill="white"/>
</svg>
